<svg width="32" height="28" viewBox="0 0 32 28" fill="none" xmlns="http://www.w3.org/2000/svg">
<path d="M21.334 26V23.3333C21.334 21.9188 20.7721 20.5623 19.7719 19.5621C18.7717 18.5619 17.4151 18 16.0007 18H6.66732C5.25283 18 3.89628 18.5619 2.89608 19.5621C1.89589 20.5623 1.33398 21.9188 1.33398 23.3333V26M26.6673 8.66667V16.6667M30.6673 12.6667H22.6673M16.6673 7.33333C16.6673 10.2789 14.2795 12.6667 11.334 12.6667C8.38847 12.6667 6.00065 10.2789 6.00065 7.33333C6.00065 4.38781 8.38847 2 11.334 2C14.2795 2 16.6673 4.38781 16.6673 7.33333Z" stroke="#1E1E1E" stroke-width="3" stroke-linecap="round" stroke-linejoin="round"/>
</svg>
