<svg xmlns="http://www.w3.org/2000/svg" width="30" height="30" fill="none"><path fill="#FEAC3E" d="M15 28.335c7.363 0 13.333-5.97 13.333-13.334 0-7.363-5.97-13.333-13.334-13.333-7.363 0-13.333 5.97-13.333 13.333 0 7.364 5.97 13.334 13.333 13.334Z"/><path fill="#FEAC3E" d="m20.333 15.001-5.334-5.333-5.333 5.333"/><path stroke="#fff" stroke-linecap="round" stroke-linejoin="round" stroke-width="1.5" d="m20.333 15.001-5.334-5.333m0 0-5.333 5.333m5.333-5.333v10.667M28.333 15c0 7.364-5.97 13.334-13.334 13.334-7.363 0-13.333-5.97-13.333-13.334 0-7.363 5.97-13.333 13.333-13.333 7.364 0 13.334 5.97 13.334 13.333Z"/></svg>