<svg width="33" height="33" viewBox="0 0 33 33" fill="none" xmlns="http://www.w3.org/2000/svg">
<circle cx="16.5" cy="16.5" r="16.5" fill="#F1F1F1"/>
<path d="M20.9473 8.93455C21.1519 8.7299 21.3949 8.56757 21.6622 8.45682C21.9296 8.34607 22.2162 8.28906 22.5056 8.28906C22.795 8.28906 23.0816 8.34607 23.349 8.45682C23.6163 8.56757 23.8593 8.7299 24.0639 8.93455C24.2686 9.13919 24.4309 9.38214 24.5417 9.64951C24.6524 9.91689 24.7094 10.2035 24.7094 10.4929C24.7094 10.7823 24.6524 11.0689 24.5417 11.3362C24.4309 11.6036 24.2686 11.8466 24.0639 12.0512L13.5452 22.57L9.25977 23.7387L10.4285 19.4533L20.9473 8.93455Z" stroke="#595959" stroke-width="2" stroke-linecap="round" stroke-linejoin="round"/>
</svg>
